<svg width="75" height="64" viewBox="0 0 75 64" fill="none" xmlns="http://www.w3.org/2000/svg">
<path d="M21.3575 47.9995L37.3766 64L53.3958 47.9995L48.0554 42.6673L37.3766 53.3337L26.6979 42.6673L21.3575 47.9995Z" fill="#00B8C4"/>
<path d="M21.3575 26.6668L37.3766 42.6673L53.3958 26.6668L48.0554 21.3327L37.3766 31.999L26.6979 21.3327L21.3575 26.6668Z" fill="#FAC634"/>
<path d="M48.0554 0L37.3766 10.6663L26.6979 0L21.3575 5.33416L37.3766 21.3327L53.3958 5.33416L48.0554 0Z" fill="#00B8C4"/>
<path d="M53.3958 16.0005L64.0745 26.6668L53.3958 37.3332L58.7342 42.6673L74.7533 26.6668L58.7342 10.6663L53.3958 16.0005Z" fill="#00B8C4"/>
<path d="M21.3575 16.0005L10.6788 26.6668L21.3575 37.3332L16.0191 42.6673L0 26.6668L16.0191 10.6663L21.3575 16.0005Z" fill="#00B8C4"/>
</svg>
