<svg width="203" height="64" viewBox="0 0 203 64" fill="none" xmlns="http://www.w3.org/2000/svg">
<g clip-path="url(#clip0_329_350)">
<path d="M21.3575 47.9995L37.3766 64L53.3958 47.9995L48.0554 42.6673L37.3766 53.3337L26.6979 42.6673L21.3575 47.9995Z" fill="#00B8C4"/>
<path d="M21.3575 26.6668L37.3766 42.6673L53.3958 26.6668L48.0554 21.3327L37.3766 31.999L26.6979 21.3327L21.3575 26.6668Z" fill="#FAC634"/>
<path d="M48.0554 0L37.3766 10.6663L26.6979 0L21.3575 5.33416L37.3766 21.3327L53.3958 5.33416L48.0554 0Z" fill="#00B8C4"/>
<path d="M53.3958 16.0005L64.0745 26.6668L53.3958 37.3332L58.7342 42.6673L74.7533 26.6668L58.7342 10.6663L53.3958 16.0005Z" fill="#00B8C4"/>
<path d="M21.3575 16.0005L10.6788 26.6668L21.3575 37.3332L16.0191 42.6673L0 26.6668L16.0191 10.6663L21.3575 16.0005Z" fill="#00B8C4"/>
<path d="M103.044 16.2812C101.278 15.3673 98.9833 14.9094 96.1586 14.9094H85.4859V38.4243H96.1188C98.6564 38.4243 100.821 37.9026 102.613 36.8573C104.405 35.812 105.779 34.3824 106.734 32.5665C107.689 30.7506 108.165 28.6659 108.165 26.3144C108.165 23.9629 107.752 21.932 106.929 20.2196C106.106 18.5093 104.81 17.1952 103.044 16.2812ZM100.554 29.7033C100.161 30.6311 99.5534 31.336 98.7301 31.8198C97.9069 32.3036 96.8145 32.5446 95.453 32.5446H92.5485V20.7871H95.2955C96.7088 20.7871 97.8391 20.9703 98.6903 21.3367C99.5395 21.703 100.161 22.2844 100.554 23.0809C100.947 23.8773 101.142 24.9565 101.142 26.3144C101.142 27.6723 100.947 28.7774 100.554 29.7053V29.7033Z" fill="#FAC634"/>
<path d="M133.904 26.5872C133.904 24.7852 133.623 23.1386 133.061 21.6493C132.499 20.1599 131.687 18.8657 130.629 17.7686C129.57 16.6715 128.281 15.8233 126.764 15.222C125.247 14.6207 123.546 14.32 121.662 14.32C119.177 14.32 117.02 14.8437 115.188 15.887C113.356 16.9323 111.937 18.3759 110.93 20.2177C109.923 22.0594 109.419 24.1819 109.419 26.5872C109.419 28.3891 109.686 30.0437 110.224 31.545C110.76 33.0483 111.552 34.3605 112.598 35.4834C113.645 36.6064 114.927 37.4765 116.444 38.0898C117.961 38.703 119.701 39.0097 121.662 39.0097C124.278 39.0097 126.495 38.4741 128.313 37.4029C130.131 36.3316 131.516 34.8562 132.473 32.9746C133.428 31.0931 133.904 28.9646 133.904 26.5872ZM126.331 29.8406C125.964 30.7804 125.396 31.4992 124.625 31.997C123.853 32.4928 122.865 32.7417 121.662 32.7417C120.46 32.7417 119.472 32.4928 118.7 31.997C117.929 31.5012 117.359 30.7824 116.994 29.8406C116.627 28.9008 116.444 27.7898 116.444 26.5095C116.444 25.4642 116.633 24.4985 117.012 23.6085C117.391 22.7205 117.967 22.0017 118.738 21.4521C119.51 20.9026 120.484 20.6298 121.66 20.6298C122.837 20.6298 123.845 20.9046 124.603 21.4521C125.36 22.0017 125.93 22.7205 126.309 23.6085C126.688 24.4965 126.877 25.4642 126.877 26.5095C126.877 27.7898 126.694 28.9008 126.327 29.8406H126.331Z" fill="#FAC634"/>
<path d="M140.419 14.9094L131.669 38.4243H138.929L140.143 34.8184H148.735L149.915 38.4243H157.488L148.777 14.9094H140.419ZM142.043 29.1756L143.046 26.1969C143.439 25.0481 143.811 23.9032 144.164 22.7683C144.256 22.4736 144.344 22.1809 144.433 21.8862H144.563C144.653 22.1809 144.738 22.4716 144.83 22.7683C145.183 23.9052 145.542 25.0481 145.908 26.1969L146.883 29.1756H142.041H142.043Z" fill="#FAC634"/>
<path d="M169.022 24.4328H168.928C168.675 23.3696 168.36 22.4915 167.982 21.8066C167.419 20.7871 166.746 20.0823 165.96 19.69C165.175 19.2978 164.286 19.1026 163.293 19.1026C161.148 19.1026 159.531 19.9847 158.447 21.7488C157.361 23.5129 156.818 26.0018 156.818 29.2154C156.818 31.2543 157.054 33.0045 157.524 34.468C157.995 35.9314 158.694 37.0544 159.623 37.8389C160.552 38.6234 161.708 39.0137 163.096 39.0137C163.853 39.0137 164.561 38.9081 165.215 38.7011C165.869 38.492 166.457 38.1276 166.981 37.604C167.503 37.0823 167.962 36.3635 168.354 35.4476C168.574 34.9339 168.765 34.3445 168.926 33.6835H169.02V43.7166H175.69V19.692H169.02V24.4348L169.022 24.4328ZM167.786 32.5844C167.38 32.8731 166.877 33.0165 166.275 33.0165C165.229 33.0165 164.489 32.678 164.059 31.997C163.626 31.318 163.411 30.3782 163.411 29.1756C163.411 27.8953 163.626 26.8958 164.059 26.177C164.491 25.4582 165.229 25.0998 166.275 25.0998C167.164 25.0998 167.844 25.4323 168.316 26.0994C168.787 26.7664 169.022 27.7122 169.022 28.9407V29.3329C169.022 30.1174 168.916 30.7824 168.709 31.332C168.5 31.8815 168.193 32.2997 167.786 32.5864V32.5844Z" fill="#FAC634"/>
<path d="M188.249 30.5853C188.249 31.0811 188.157 31.5132 187.974 31.8795C187.79 32.2459 187.529 32.5266 187.188 32.7218C186.847 32.9169 186.429 33.0165 185.932 33.0165C185.436 33.0165 185.023 32.9189 184.696 32.7218C184.369 32.5266 184.12 32.2459 183.951 31.8795C183.781 31.5132 183.696 31.0831 183.696 30.5853V19.69H177.026V32.5844C177.026 33.9423 177.221 35.0992 177.614 36.0529C178.006 37.0066 178.595 37.7374 179.38 38.2471C180.165 38.7568 181.146 39.0117 182.322 39.0117C183.343 39.0117 184.252 38.8165 185.049 38.4243C185.847 38.032 186.534 37.3272 187.108 36.3078C187.565 35.4994 187.928 34.4262 188.203 33.0941H188.245V38.4243H194.915V19.69H188.245V30.5853H188.249Z" fill="#FAC634"/>
<path d="M203 14.3997H196.33V18.3181H203V14.3997Z" fill="#FAC634"/>
<path d="M203 19.69H196.33V38.4243H203V19.69Z" fill="#FAC634"/>
</g>
<defs>
<clipPath id="clip0_329_350">
<rect width="203" height="64" fill="white"/>
</clipPath>
</defs>
</svg>
