<svg width="114" height="114" viewBox="0 0 114 114" fill="none" xmlns="http://www.w3.org/2000/svg">
<rect x="56.5684" width="80" height="80" transform="rotate(45 56.5684 0)" fill="#00B8C4"/>
<path d="M56.9816 65.3366C58.8376 65.3366 60.1496 65.0006 60.9176 64.3286C61.6856 63.6246 62.0696 62.6486 62.0696 61.4006C62.0696 60.2486 61.6856 59.3366 60.9176 58.6646C60.1816 57.9606 58.9176 57.6086 57.1256 57.6086C55.9416 57.6086 54.8856 57.7686 53.9576 58.0886C53.0616 58.3766 52.2936 58.7606 51.6536 59.2406L45.8456 57.1766V41.7686H67.3016V47.9606C64.5176 47.9606 62.0056 47.9446 59.7656 47.9126C57.5256 47.8806 55.5256 47.8326 53.7656 47.7686C52.0056 47.7046 50.4376 47.6566 49.0616 47.6246L52.1816 43.4486V56.2646L49.4936 56.1206C50.3256 55.2566 51.5256 54.4886 53.0936 53.8166C54.6616 53.1126 56.6616 52.7606 59.0936 52.7606C61.3656 52.7606 63.2216 53.1446 64.6616 53.9126C66.1016 54.6486 67.1576 55.6726 67.8296 56.9846C68.5336 58.2646 68.8856 59.7686 68.8856 61.4966C68.8856 63.6726 68.4056 65.4646 67.4456 66.8726C66.5176 68.2806 65.1576 69.3366 63.3656 70.0406C61.6056 70.7126 59.4456 71.0486 56.8856 71.0486C53.3016 71.0486 50.4696 70.3926 48.3896 69.0806C46.3096 67.7366 44.9176 65.5926 44.2136 62.6486L50.7896 61.1606C51.0776 61.9606 51.4616 62.6806 51.9416 63.3206C52.4536 63.9606 53.1096 64.4566 53.9096 64.8086C54.7416 65.1606 55.7656 65.3366 56.9816 65.3366Z" fill="#F7FBFC"/>
</svg>
