<svg width="114" height="114" viewBox="0 0 114 114" fill="none" xmlns="http://www.w3.org/2000/svg">
<rect x="56.5685" width="80" height="80" transform="rotate(45 56.5685 0)" fill="#00B8C4"/>
<path d="M57.3223 47.0966C55.4983 47.0966 54.1063 47.6566 53.1463 48.7766C52.1863 49.8966 51.6103 51.5766 51.4183 53.8166L44.9383 53.1926C45.1623 50.7286 45.7383 48.6006 46.6663 46.8086C47.5943 45.0166 48.9383 43.6406 50.6983 42.6806C52.4583 41.6886 54.6983 41.1926 57.4183 41.1926C59.8503 41.1926 61.8983 41.5446 63.5623 42.2486C65.2583 42.9206 66.5383 43.9606 67.4023 45.3686C68.2983 46.7766 68.7463 48.5526 68.7463 50.6966C68.7463 52.5526 68.2823 54.1206 67.3543 55.4006C66.4583 56.6806 65.1303 57.7366 63.3703 58.5686C61.6423 59.4006 59.5623 60.0566 57.1303 60.5366C55.8183 60.8246 54.7303 61.1286 53.8663 61.4486C53.0343 61.7366 52.3623 62.0726 51.8503 62.4566C51.3703 62.8406 51.0343 63.3046 50.8423 63.8486C50.6823 64.3606 50.6023 65.0166 50.6023 65.8166L47.7703 65.0006C48.3143 64.9366 48.9543 64.8886 49.6903 64.8566C50.4583 64.7926 51.2743 64.7446 52.1383 64.7126C53.0023 64.6486 53.8343 64.6006 54.6343 64.5686C55.4663 64.5366 56.1863 64.5206 56.7943 64.5206H68.8903V70.5686H44.2183C44.1863 69.9926 44.1543 69.4166 44.1223 68.8406C44.1223 68.2646 44.1223 67.6726 44.1223 67.0646C44.1223 64.7926 44.4743 62.9366 45.1783 61.4966C45.8823 60.0246 46.9703 58.8406 48.4423 57.9446C49.9463 57.0166 51.8823 56.2806 54.2503 55.7366C55.8503 55.3206 57.1463 54.9366 58.1383 54.5846C59.1623 54.2326 59.9303 53.8646 60.4423 53.4806C60.9863 53.0646 61.3543 52.6326 61.5463 52.1846C61.7383 51.7046 61.8343 51.1766 61.8343 50.6006C61.8343 49.8966 61.6743 49.2886 61.3543 48.7766C61.0343 48.2326 60.5383 47.8166 59.8663 47.5286C59.2263 47.2406 58.3783 47.0966 57.3223 47.0966Z" fill="#F7FBFC"/>
</svg>
