<svg width="103" height="88" viewBox="0 0 103 88" fill="none" xmlns="http://www.w3.org/2000/svg">
<g clip-path="url(#clip0_329_991)">
<path d="M38.0124 41.9167L52.0512 55.8896L66.0918 41.9167L61.4128 37.2603L52.0512 46.5749L42.6914 37.2603L38.0124 41.9167Z" fill="#00B8C4"/>
<path d="M38.0124 23.2876L52.0512 37.2605L66.0918 23.2876L61.4128 18.6294L52.0512 27.9441L42.6914 18.6294L38.0124 23.2876Z" fill="#FAC634"/>
<path d="M61.4128 0L52.0512 9.31468L42.6914 0L38.0124 4.65821L52.0512 18.6294L66.0918 4.65821L61.4128 0Z" fill="#00B8C4"/>
<path d="M66.0919 13.9727L75.4517 23.2873L66.0919 32.602L70.7726 37.2602L84.8115 23.2873L70.7726 9.31445L66.0919 13.9727Z" fill="#00B8C4"/>
<path d="M38.0124 13.9727L28.6526 23.2873L38.0124 32.602L33.3316 37.2602L19.291 23.2873L33.3316 9.31445L38.0124 13.9727Z" fill="#00B8C4"/>
<path d="M15.3895 64.0428C13.8414 63.2447 11.8304 62.8447 9.35458 62.8447H0V83.3798H9.31964C11.5438 83.3798 13.4413 82.9242 15.0121 82.0114C16.5828 81.0985 17.7866 79.8501 18.6236 78.2643C19.4605 76.6785 19.878 74.858 19.878 72.8045C19.878 70.751 19.5164 68.9774 18.7948 67.4821C18.0732 65.9885 16.9375 64.8409 15.3895 64.0428ZM13.2054 75.7639C12.8612 76.5742 12.3283 77.1897 11.6067 77.6122C10.8851 78.0348 9.92767 78.2452 8.73432 78.2452H6.18863V67.9776H8.59629C9.83507 67.9776 10.8257 68.1376 11.5718 68.4575C12.3161 68.7775 12.8612 69.2852 13.2054 69.9807C13.5496 70.6762 13.7209 71.6186 13.7209 72.8045C13.7209 73.9903 13.5496 74.9554 13.2054 75.7656V75.7639Z" fill="#FAC634"/>
<path d="M42.4381 73.0447C42.4381 71.4711 42.1917 70.0331 41.699 68.7325C41.2063 67.4319 40.4952 66.3017 39.5674 65.3436C38.6396 64.3855 37.5092 63.6448 36.1796 63.1197C34.8499 62.5946 33.3596 62.332 31.7084 62.332C29.5297 62.332 27.6392 62.7893 26.0335 63.7005C24.4278 64.6133 23.1838 65.8739 22.3014 67.4823C21.4191 69.0907 20.9771 70.9442 20.9771 73.0447C20.9771 74.6183 21.2112 76.0632 21.6829 77.3743C22.1529 78.6871 22.8466 79.8329 23.7639 80.8136C24.6811 81.7943 25.8046 82.5541 27.1342 83.0897C28.4639 83.6252 29.9892 83.893 31.7084 83.893C34.0008 83.893 35.9437 83.4253 37.5371 82.4898C39.1306 81.5543 40.3449 80.2659 41.1836 78.6227C42.0205 76.9796 42.4381 75.1208 42.4381 73.0447ZM35.8004 75.8841C35.4789 76.7048 34.981 77.3325 34.3048 77.7672C33.6286 78.2002 32.762 78.4175 31.7084 78.4175C30.6549 78.4175 29.7882 78.2002 29.1121 77.7672C28.4359 77.3343 27.9362 76.7066 27.6165 75.8841C27.295 75.0634 27.1342 74.0932 27.1342 72.9751C27.1342 72.0623 27.3002 71.219 27.6322 70.4417C27.9642 69.6662 28.4691 69.0385 29.1453 68.5586C29.8214 68.0787 30.6758 67.8405 31.7067 67.8405C32.7375 67.8405 33.6216 68.0805 34.2856 68.5586C34.9495 69.0385 35.4492 69.6662 35.7812 70.4417C36.1132 71.2172 36.2791 72.0623 36.2791 72.9751C36.2791 74.0932 36.1184 75.0634 35.7969 75.8841H35.8004Z" fill="#FAC634"/>
<path d="M48.1462 62.8447L40.4777 83.3798H46.8411L47.9051 80.2309H55.4356L56.47 83.3798H63.1076L55.4723 62.8447H48.1462ZM49.572 75.3031L50.4508 72.7019C50.795 71.6986 51.1217 70.6988 51.431 69.7077C51.5114 69.4504 51.5882 69.1948 51.6669 68.9374H51.7804C51.8591 69.1948 51.9342 69.4486 52.0146 69.7077C52.3238 70.7006 52.6383 71.6986 52.9598 72.7019L53.8142 75.3031H49.5702H49.572Z" fill="#FAC634"/>
<path d="M73.2187 71.1616H73.1366C72.9147 70.2331 72.6387 69.4663 72.3067 68.8681C71.814 67.9779 71.2234 67.3623 70.535 67.0198C69.8466 66.6772 69.0674 66.5068 68.1972 66.5068C66.3172 66.5068 64.9003 67.2771 63.9498 68.8177C62.9975 70.3582 62.5223 72.5317 62.5223 75.3381C62.5223 77.1187 62.7285 78.647 63.1408 79.9251C63.5532 81.2031 64.1664 82.1837 64.9806 82.8688C65.7948 83.5539 66.8082 83.8947 68.0243 83.8947C68.6882 83.8947 69.3085 83.8026 69.8816 83.6217C70.4546 83.4391 70.9701 83.1209 71.4296 82.6636C71.8874 82.2081 72.2892 81.5804 72.6334 80.7805C72.8256 80.3319 72.9933 79.8173 73.1349 79.24H73.217V88.0017H79.0632V67.0215H73.217V71.1633L73.2187 71.1616ZM72.1355 78.2802C71.779 78.5323 71.3387 78.6575 70.8111 78.6575C69.8938 78.6575 69.2456 78.3619 68.8682 77.7672C68.489 77.1743 68.3003 76.3536 68.3003 75.3034C68.3003 74.1853 68.489 73.3124 68.8682 72.6847C69.2473 72.057 69.8938 71.7441 70.8111 71.7441C71.5903 71.7441 72.1861 72.0344 72.6002 72.6169C73.0126 73.1994 73.2187 74.0254 73.2187 75.0982V75.4407C73.2187 76.1258 73.1261 76.7066 72.9444 77.1865C72.761 77.6664 72.4919 78.0315 72.1355 78.2819V78.2802Z" fill="#FAC634"/>
<path d="M90.0689 76.5347C90.0689 76.9676 89.9885 77.3449 89.8278 77.6649C89.667 77.9848 89.4381 78.23 89.1393 78.4004C88.8406 78.5708 88.4737 78.6577 88.0386 78.6577C87.6035 78.6577 87.2419 78.5725 86.9553 78.4004C86.6688 78.23 86.4504 77.9848 86.3019 77.6649C86.1534 77.3449 86.0782 76.9694 86.0782 76.5347V67.02H80.2321V78.2804C80.2321 79.4663 80.4033 80.4765 80.7475 81.3094C81.0917 82.1422 81.6071 82.7804 82.2955 83.2255C82.9839 83.6706 83.8435 83.8932 84.8744 83.8932C85.769 83.8932 86.5657 83.7228 87.2646 83.3803C87.9635 83.0377 88.5663 82.4222 89.0695 81.5319C89.4696 80.826 89.7876 79.8888 90.0287 78.7255H90.0654V83.3803H95.9116V67.02H90.0654V76.5347H90.0689Z" fill="#FAC634"/>
<path d="M103 62.3999H97.1538V65.8218H103V62.3999Z" fill="#FAC634"/>
<path d="M103 67.02H97.1538V83.3803H103V67.02Z" fill="#FAC634"/>
</g>
<defs>
<clipPath id="clip0_329_991">
<rect width="103" height="88" fill="white"/>
</clipPath>
</defs>
</svg>
