<svg width="114" height="114" viewBox="0 0 114 114" fill="none" xmlns="http://www.w3.org/2000/svg">
<rect x="56.5684" width="80" height="80" transform="rotate(45 56.5684 0)" fill="#00B8C4"/>
<path d="M56.4649 57.2246C55.0569 57.2246 53.9209 57.4166 53.0569 57.8006C52.2249 58.1526 51.6169 58.6326 51.2329 59.2406C50.8489 59.8166 50.6569 60.4726 50.6569 61.2086C50.6569 61.9446 50.8489 62.6326 51.2329 63.2726C51.6169 63.8806 52.2249 64.3606 53.0569 64.7126C53.8889 65.0646 54.9609 65.2406 56.2729 65.2406C57.7129 65.2406 58.8169 65.0646 59.5849 64.7126C60.3529 64.3286 60.8809 63.8166 61.1689 63.1766C61.4569 62.5366 61.6009 61.8326 61.6009 61.0646C61.6009 60.2646 61.4409 59.5766 61.1209 59.0006C60.8329 58.4246 60.3049 57.9926 59.5369 57.7046C58.8009 57.3846 57.7769 57.2246 56.4649 57.2246ZM49.2649 59.0966L50.9449 59.3366L50.1289 60.6326C50.3849 58.7126 50.9129 57.2086 51.7129 56.1206C52.5449 55.0006 53.5849 54.2006 54.8329 53.7206C56.0809 53.2406 57.4729 53.0006 59.0089 53.0006C60.8009 53.0006 62.3849 53.2726 63.7609 53.8166C65.1689 54.3606 66.2729 55.2406 67.0729 56.4566C67.9049 57.6406 68.3209 59.2246 68.3209 61.2086C68.3209 63.2246 67.8729 64.9846 66.9769 66.4886C66.0809 67.9926 64.7369 69.1606 62.9449 69.9926C61.1529 70.7926 58.8969 71.1926 56.1769 71.1926C54.2889 71.1926 52.5609 70.9366 50.9929 70.4246C49.4249 69.8806 48.0649 69.0326 46.9129 67.8806C45.7929 66.7286 44.9289 65.1926 44.3209 63.2726C43.7129 61.3526 43.4089 59.0166 43.4089 56.2646C43.4089 53.4486 43.8409 50.9046 44.7049 48.6326C45.6009 46.3606 46.9929 44.5526 48.8809 43.2086C50.8009 41.8326 53.2969 41.1446 56.3689 41.1446C59.1529 41.1446 61.3449 41.5286 62.9449 42.2966C64.5449 43.0646 65.7289 44.2006 66.4969 45.7046C67.2649 47.1766 67.7289 49.0006 67.8889 51.1766L61.3129 51.8006C61.0249 50.2646 60.5449 49.0966 59.8729 48.2966C59.2329 47.4966 58.0489 47.0966 56.3209 47.0966C54.7849 47.0966 53.5529 47.4806 52.6249 48.2486C51.6969 48.9846 51.0249 50.1526 50.6089 51.7526C50.2249 53.3526 50.0329 55.4166 50.0329 57.9446C50.0329 58.2646 50.0329 58.6166 50.0329 59.0006C50.0329 59.3526 50.0329 59.8006 50.0329 60.3446L49.2649 59.0966Z" fill="#F7FBFC"/>
</svg>
