<svg width="114" height="114" viewBox="0 0 114 114" fill="none" xmlns="http://www.w3.org/2000/svg">
<rect x="56.5685" width="80" height="80" transform="rotate(45 56.5685 0)" fill="#00B8C4"/>
<path d="M56.9784 71.0486C53.0744 71.0486 50.0504 70.2486 47.9064 68.6486C45.7944 67.0166 44.5784 64.4726 44.2584 61.0166L51.0264 60.3926C51.1864 61.4166 51.4584 62.2966 51.8424 63.0326C52.2264 63.7686 52.8344 64.3446 53.6664 64.7606C54.4984 65.1446 55.6344 65.3366 57.0744 65.3366C58.7064 65.3366 59.9224 65.0326 60.7224 64.4246C61.5544 63.7846 61.9704 62.9206 61.9704 61.8326C61.9704 61.1286 61.8264 60.5366 61.5384 60.0566C61.2824 59.5766 60.8184 59.2246 60.1464 59.0006C59.4744 58.7446 58.5144 58.6166 57.2664 58.6166H52.5624V53.6726H57.2664C58.1304 53.6726 58.8504 53.5766 59.4264 53.3846C60.0344 53.1606 60.4984 52.8246 60.8184 52.3766C61.1384 51.8966 61.2984 51.2726 61.2984 50.5046C61.2984 49.2886 60.9304 48.4086 60.1944 47.8646C59.4584 47.3206 58.3384 47.0486 56.8344 47.0486C54.9464 47.0486 53.6504 47.4486 52.9464 48.2486C52.2744 49.0486 51.8264 50.1686 51.6024 51.6086L45.1704 51.0806C45.3944 49.0646 45.9384 47.3366 46.8024 45.8966C47.6984 44.4246 48.9624 43.2886 50.5944 42.4886C52.2584 41.6886 54.3224 41.2886 56.7864 41.2886C60.5944 41.2886 63.3624 41.9446 65.0904 43.2566C66.8184 44.5686 67.6824 46.4886 67.6824 49.0166C67.6824 51.5446 66.7384 53.3846 64.8504 54.5366C62.9944 55.6566 60.3384 56.2806 56.8824 56.4086L61.5864 54.8726V57.0806L56.8824 55.8806C59.9544 55.8806 62.3544 56.1046 64.0824 56.5526C65.8424 57.0006 67.0744 57.7206 67.7784 58.7126C68.4824 59.7046 68.8344 61.0326 68.8344 62.6966C68.8344 64.3286 68.4184 65.7686 67.5864 67.0166C66.7864 68.2646 65.5064 69.2566 63.7464 69.9926C62.0184 70.6966 59.7624 71.0486 56.9784 71.0486Z" fill="#F7FBFC"/>
</svg>
